<svg width="16" height="24" viewBox="0 0 16 24" fill="none" xmlns="http://www.w3.org/2000/svg">
<path d="M8.62225 5.0941C8.52323 4.83663 8.27587 4.66675 8.00002 4.66675C7.72417 4.66675 7.47681 4.83663 7.37779 5.0941L6.03649 8.58149C5.83622 9.10218 5.77329 9.25223 5.6872 9.37329C5.60083 9.49476 5.4947 9.60089 5.37323 9.68727C5.25217 9.77335 5.10212 9.83628 4.58142 10.0365L1.09403 11.3779C0.836573 11.4769 0.666687 11.7242 0.666687 12.0001C0.666687 12.2759 0.836573 12.5233 1.09403 12.6223L4.58143 13.9636C5.10212 14.1639 5.25217 14.2268 5.37323 14.3129C5.4947 14.3993 5.60083 14.5054 5.6872 14.6269C5.77329 14.7479 5.83622 14.898 6.03649 15.4187L7.37779 18.9061C7.47682 19.1635 7.72417 19.3334 8.00002 19.3334C8.27587 19.3334 8.52323 19.1635 8.62225 18.9061L9.96356 15.4187C10.1638 14.898 10.2268 14.7479 10.3128 14.6269C10.3992 14.5054 10.5053 14.3993 10.6268 14.3129C10.7479 14.2268 10.8979 14.1639 11.4186 13.9636L14.906 12.6223C15.1635 12.5233 15.3334 12.2759 15.3334 12.0001C15.3334 11.7242 15.1635 11.4769 14.906 11.3779L11.4186 10.0365C10.8979 9.83628 10.7479 9.77335 10.6268 9.68727C10.5053 9.60089 10.3992 9.49476 10.3128 9.37329C10.2268 9.25223 10.1638 9.10218 9.96356 8.58149L8.62225 5.0941Z" fill="#6852D6"/>
</svg>
