<svg width="235" height="235" viewBox="0 0 235 235" fill="none" xmlns="http://www.w3.org/2000/svg">
<path d="M207.511 1C221.809 1.00007 233.399 12.58 233.399 26.8887V207.511C233.399 221.809 221.819 233.399 207.511 233.399H26.8887C12.5906 233.399 1.00007 221.819 1 207.511V56.1523H47.165L45.2383 77.7461L44.9531 80.9424L47.0039 78.4736L66.6973 54.7617H72.0469C87.48 54.7617 99.2411 42.2413 99.2412 26.874V1H207.511ZM119.341 50.5381C109.135 50.5381 100.025 52.2391 92.0283 55.666C84.0521 59.0844 77.2819 63.8529 71.7324 69.9736C66.186 76.091 61.9941 83.3432 59.1494 91.7148C56.3068 100.08 54.8896 109.123 54.8896 118.835C54.8897 128.239 56.4307 136.896 59.5254 144.796C62.6149 152.682 66.9309 159.488 72.4775 165.197C78.0295 170.912 84.7591 175.354 92.6504 178.526C100.552 181.703 109.213 183.286 118.62 183.286C135.305 183.286 149.082 178.908 159.871 170.081C170.683 161.235 177.187 148.404 179.456 131.708L179.61 130.573H144.674L144.549 131.429C143.451 138.96 140.758 144.88 136.527 149.265C132.36 153.584 126.362 155.809 118.38 155.81C113.247 155.81 108.959 154.644 105.467 152.366C101.912 150.048 99.098 147.079 97.0146 143.452C94.9091 139.787 93.3823 135.682 92.4404 131.13C91.4921 126.546 91.0186 122.047 91.0186 117.633C91.0186 113.056 91.4919 108.436 92.4404 103.772C93.3809 99.1487 94.9847 94.9278 97.248 91.1035C99.4979 87.3021 102.401 84.208 105.96 81.8096C109.446 79.4603 113.807 78.2549 119.101 78.2549C126.231 78.2549 131.724 79.9969 135.698 83.3652C139.671 86.7326 142.253 91.8331 143.349 98.8008L143.481 99.6455H178.807L178.743 98.5859C178.255 90.449 176.298 83.3631 172.843 77.3574C169.409 71.3898 164.95 66.397 159.468 62.3877C153.998 58.3874 147.8 55.413 140.883 53.46C133.981 51.5113 126.799 50.5381 119.341 50.5381Z" stroke="#191822" stroke-width="2"/>
</svg>
