<svg width="16" height="24" viewBox="0 0 16 24" fill="none" xmlns="http://www.w3.org/2000/svg">
<path d="M8.62225 5.09385C8.52323 4.83639 8.27587 4.6665 8.00002 4.6665C7.72417 4.6665 7.47681 4.83639 7.37779 5.09385L6.03649 8.58124C5.83622 9.10194 5.77329 9.25199 5.6872 9.37305C5.60083 9.49452 5.4947 9.60065 5.37323 9.68702C5.25217 9.7731 5.10212 9.83604 4.58142 10.0363L1.09403 11.3776C0.836573 11.4766 0.666687 11.724 0.666687 11.9998C0.666687 12.2757 0.836573 12.523 1.09403 12.6221L4.58143 13.9634C5.10212 14.1636 5.25217 14.2266 5.37323 14.3127C5.4947 14.399 5.60083 14.5052 5.6872 14.6266C5.77329 14.7477 5.83622 14.8977 6.03649 15.4184L7.37779 18.9058C7.47682 19.1633 7.72417 19.3332 8.00002 19.3332C8.27587 19.3332 8.52323 19.1633 8.62225 18.9058L9.96356 15.4184C10.1638 14.8977 10.2268 14.7477 10.3128 14.6266C10.3992 14.5052 10.5053 14.399 10.6268 14.3127C10.7479 14.2266 10.8979 14.1636 11.4186 13.9634L14.906 12.6221C15.1635 12.523 15.3334 12.2757 15.3334 11.9998C15.3334 11.724 15.1635 11.4766 14.906 11.3776L11.4186 10.0363C10.8979 9.83604 10.7479 9.7731 10.6268 9.68702C10.5053 9.60065 10.3992 9.49452 10.3128 9.37305C10.2268 9.25199 10.1638 9.10194 9.96356 8.58124L8.62225 5.09385Z" fill="#6852D6"/>
</svg>
