<svg width="1090" height="294" viewBox="0 0 1090 294" fill="none" xmlns="http://www.w3.org/2000/svg">
<path d="M566 0V127" stroke="#FAFAFF" stroke-opacity="0.1"/>
<path d="M552 0V127" stroke="#FAFAFF" stroke-opacity="0.1"/>
<path d="M538 0V127" stroke="#FAFAFF" stroke-opacity="0.1"/>
<path d="M524 0V127" stroke="#FAFAFF" stroke-opacity="0.1"/>
<path d="M625 185H944.529C947.712 185 950.764 183.736 953.015 181.485L981.985 152.515C984.236 150.264 987.288 149 990.471 149H1050" stroke="#FAFAFF" stroke-opacity="0.1"/>
<path d="M625 199H837.285C839.391 199 841.46 199.554 843.285 200.608L874.954 218.892C876.779 219.946 878.848 220.5 880.954 220.5H1000" stroke="#FAFAFF" stroke-opacity="0.1"/>
<path d="M625 213H832.285C834.391 213 836.46 213.554 838.285 214.608L923 263.518" stroke="url(#paint0_linear_3654_31328)" stroke-opacity="0.1"/>
<path d="M625 227H827.285C829.391 227 831.46 227.554 833.285 228.608L863 245.764" stroke="url(#paint1_linear_3654_31328)" stroke-opacity="0.1"/>
<rect x="1050" y="129" width="40" height="40" rx="8" fill="url(#paint2_linear_3654_31328)" fill-opacity="0.15"/>
<rect x="1050.5" y="129.5" width="39" height="39" rx="7.5" stroke="#FAFAFF" stroke-opacity="0.1"/>
<g opacity="0.6">
<path d="M1066.74 152.736C1069.16 155.154 1072.1 157.021 1074.51 157.021C1075.59 157.021 1076.54 156.644 1077.3 155.807C1077.74 155.313 1078.02 154.736 1078.02 154.167C1078.02 153.749 1077.86 153.347 1077.47 153.063L1074.89 151.238C1074.5 150.971 1074.17 150.837 1073.87 150.837C1073.49 150.837 1073.15 151.054 1072.77 151.431L1072.17 152.017C1072.08 152.109 1071.96 152.15 1071.85 152.15C1071.73 152.15 1071.6 152.1 1071.52 152.058C1071 151.782 1070.11 151.021 1069.28 150.201C1068.46 149.381 1067.69 148.494 1067.43 147.975C1067.38 147.883 1067.33 147.766 1067.33 147.64C1067.33 147.531 1067.37 147.423 1067.46 147.331L1068.05 146.72C1068.42 146.335 1068.65 146 1068.65 145.615C1068.65 145.314 1068.51 144.988 1068.23 144.594L1066.43 142.059C1066.14 141.657 1065.72 141.481 1065.27 141.481C1064.72 141.481 1064.15 141.732 1063.65 142.209C1062.84 142.988 1062.48 143.95 1062.48 145.013C1062.48 147.414 1064.32 150.326 1066.74 152.736Z" fill="url(#paint3_linear_3654_31328)"/>
</g>
<rect x="1000" y="201" width="40" height="40" rx="8" fill="url(#paint4_linear_3654_31328)" fill-opacity="0.15"/>
<rect x="1000.5" y="201.5" width="39" height="39" rx="7.5" stroke="#FAFAFF" stroke-opacity="0.1"/>
<g opacity="0.6">
<path fill-rule="evenodd" clip-rule="evenodd" d="M1012.1 215.375C1012.11 215.375 1012.12 215.375 1012.13 215.375H1012.88C1012.88 215.375 1012.89 215.375 1012.9 215.375C1013.14 215.375 1013.37 215.375 1013.57 215.391C1013.78 215.408 1014.03 215.45 1014.29 215.579C1014.64 215.759 1014.93 216.046 1015.11 216.399C1015.24 216.653 1015.28 216.906 1015.3 217.12C1015.31 217.316 1015.31 217.546 1015.31 217.783C1015.31 217.793 1015.31 217.803 1015.31 217.813L1015.31 227.967C1015.31 228.204 1015.31 228.434 1015.3 228.63C1015.28 228.844 1015.24 229.097 1015.11 229.351C1014.93 229.704 1014.64 229.991 1014.29 230.171C1014.03 230.3 1013.78 230.342 1013.57 230.359C1013.37 230.375 1013.14 230.375 1012.9 230.375H1012.1C1011.86 230.375 1011.63 230.375 1011.43 230.359C1011.22 230.342 1010.97 230.3 1010.71 230.171C1010.36 229.991 1010.07 229.704 1009.89 229.351C1009.76 229.097 1009.72 228.844 1009.7 228.63C1009.69 228.434 1009.69 228.204 1009.69 227.967L1009.69 217.813C1009.69 217.803 1009.69 217.793 1009.69 217.783C1009.69 217.546 1009.69 217.316 1009.7 217.12C1009.72 216.906 1009.76 216.653 1009.89 216.399C1010.07 216.046 1010.36 215.759 1010.71 215.579C1010.97 215.45 1011.22 215.408 1011.43 215.391C1011.63 215.375 1011.86 215.375 1012.1 215.375Z" fill="url(#paint5_linear_3654_31328)"/>
<path fill-rule="evenodd" clip-rule="evenodd" d="M1019.6 211.625C1019.61 211.625 1019.62 211.625 1019.63 211.625L1020.38 211.625C1020.38 211.625 1020.39 211.625 1020.4 211.625C1020.64 211.625 1020.87 211.625 1021.07 211.641C1021.28 211.658 1021.53 211.7 1021.79 211.829C1022.14 212.009 1022.43 212.296 1022.61 212.649C1022.74 212.903 1022.78 213.156 1022.8 213.37C1022.81 213.566 1022.81 213.796 1022.81 214.033C1022.81 214.043 1022.81 214.053 1022.81 214.063L1022.81 227.967C1022.81 228.204 1022.81 228.434 1022.8 228.63C1022.78 228.844 1022.74 229.097 1022.61 229.351C1022.43 229.704 1022.14 229.991 1021.79 230.171C1021.53 230.3 1021.28 230.342 1021.07 230.359C1020.87 230.375 1020.64 230.375 1020.4 230.375H1019.6C1019.36 230.375 1019.13 230.375 1018.93 230.359C1018.72 230.342 1018.47 230.3 1018.21 230.171C1017.86 229.991 1017.57 229.704 1017.39 229.351C1017.26 229.097 1017.22 228.844 1017.2 228.63C1017.19 228.434 1017.19 228.204 1017.19 227.967L1017.19 214.063C1017.19 214.053 1017.19 214.043 1017.19 214.033C1017.19 213.796 1017.19 213.566 1017.2 213.37C1017.22 213.156 1017.26 212.903 1017.39 212.649C1017.57 212.296 1017.86 212.009 1018.21 211.829C1018.47 211.7 1018.72 211.658 1018.93 211.641C1019.13 211.625 1019.36 211.625 1019.6 211.625Z" fill="url(#paint6_linear_3654_31328)"/>
<path fill-rule="evenodd" clip-rule="evenodd" d="M1027.1 219.125C1027.11 219.125 1027.12 219.125 1027.13 219.125H1027.88C1027.88 219.125 1027.89 219.125 1027.9 219.125C1028.14 219.125 1028.37 219.125 1028.57 219.141C1028.78 219.158 1029.03 219.2 1029.29 219.329C1029.64 219.509 1029.93 219.796 1030.11 220.149C1030.24 220.403 1030.28 220.656 1030.3 220.87C1030.31 221.066 1030.31 221.296 1030.31 221.533C1030.31 221.543 1030.31 221.553 1030.31 221.563L1030.31 227.967C1030.31 228.204 1030.31 228.434 1030.3 228.63C1030.28 228.844 1030.24 229.097 1030.11 229.351C1029.93 229.704 1029.64 229.991 1029.29 230.171C1029.03 230.3 1028.78 230.342 1028.57 230.359C1028.37 230.375 1028.14 230.375 1027.9 230.375H1027.1C1026.86 230.375 1026.63 230.375 1026.43 230.359C1026.22 230.342 1025.97 230.3 1025.71 230.171C1025.36 229.991 1025.07 229.704 1024.89 229.351C1024.76 229.097 1024.72 228.844 1024.7 228.63C1024.69 228.434 1024.69 228.204 1024.69 227.967L1024.69 221.563C1024.69 221.553 1024.69 221.543 1024.69 221.533C1024.69 221.296 1024.69 221.066 1024.7 220.87C1024.72 220.656 1024.76 220.403 1024.89 220.149C1025.07 219.796 1025.36 219.509 1025.71 219.329C1025.97 219.2 1026.22 219.158 1026.43 219.141C1026.63 219.125 1026.86 219.125 1027.1 219.125Z" fill="url(#paint7_linear_3654_31328)"/>
</g>
<path d="M465 199H145.471C142.288 199 139.236 197.736 136.985 195.485L108.015 166.515C105.764 164.264 102.712 163 99.5294 163H40" stroke="#FAFAFF" stroke-opacity="0.1"/>
<rect y="143" width="40" height="40" rx="8" fill="url(#paint8_linear_3654_31328)" fill-opacity="0.15"/>
<rect x="0.5" y="143.5" width="39" height="39" rx="7.5" stroke="#FAFAFF" stroke-opacity="0.1"/>
<g opacity="0.6">
<path fill-rule="evenodd" clip-rule="evenodd" d="M20 153.625C14.8223 153.625 10.625 157.822 10.625 163C10.625 164.245 10.8683 165.436 11.3108 166.526C11.3508 166.624 11.3738 166.681 11.3896 166.723L11.3943 166.736L11.3937 166.74C11.3891 166.775 11.3813 166.822 11.3663 166.912L10.8059 170.275C10.7807 170.425 10.7526 170.594 10.7416 170.74C10.7295 170.9 10.7253 171.153 10.8404 171.422C10.9826 171.753 11.2468 172.017 11.5784 172.16C11.8467 172.275 12.1005 172.27 12.26 172.258C12.4064 172.247 12.5749 172.219 12.7255 172.194L16.0879 171.634C16.1779 171.619 16.2251 171.611 16.2597 171.606L16.2641 171.606L16.2771 171.61C16.319 171.626 16.3758 171.649 16.4743 171.689C17.5639 172.132 18.7547 172.375 20 172.375C25.1777 172.375 29.375 168.178 29.375 163C29.375 157.822 25.1777 153.625 20 153.625ZM16.25 159.719C15.7322 159.719 15.3125 160.138 15.3125 160.656C15.3125 161.174 15.7322 161.594 16.25 161.594H20C20.5178 161.594 20.9375 161.174 20.9375 160.656C20.9375 160.138 20.5178 159.719 20 159.719H16.25ZM16.25 163C15.7322 163 15.3125 163.42 15.3125 163.938C15.3125 164.455 15.7322 164.875 16.25 164.875H22.8125C23.3303 164.875 23.75 164.455 23.75 163.938C23.75 163.42 23.3303 163 22.8125 163H16.25Z" fill="url(#paint9_linear_3654_31328)"/>
</g>
<rect x="107" y="239" width="40" height="40" rx="8" fill="url(#paint10_linear_3654_31328)" fill-opacity="0.15"/>
<rect x="107.5" y="239.5" width="39" height="39" rx="7.5" stroke="#FAFAFF" stroke-opacity="0.1"/>
<g opacity="0.6">
<path fill-rule="evenodd" clip-rule="evenodd" d="M119.46 256.6C118.361 255.946 117.625 254.746 117.625 253.375C117.625 251.304 119.304 249.625 121.375 249.625C123.446 249.625 125.125 251.304 125.125 253.375C125.125 254.691 124.447 255.849 123.421 256.518L126.23 257.948L135.012 253.477C135.474 253.242 136.038 253.426 136.273 253.887C136.508 254.349 136.324 254.913 135.863 255.148L128.297 259L135.863 262.852C136.324 263.087 136.508 263.651 136.273 264.113C136.038 264.574 135.474 264.758 135.012 264.523L126.23 260.052L123.421 261.482C124.447 262.151 125.125 263.309 125.125 264.625C125.125 266.696 123.446 268.375 121.375 268.375C119.304 268.375 117.625 266.696 117.625 264.625C117.625 263.254 118.361 262.054 119.46 261.4C119.485 261.384 119.511 261.369 119.538 261.355C119.629 261.304 119.721 261.257 119.817 261.213L124.164 259L119.817 256.787C119.721 256.743 119.629 256.696 119.538 256.645C119.511 256.631 119.485 256.616 119.46 256.6ZM119.5 253.375C119.5 252.339 120.339 251.5 121.375 251.5C122.411 251.5 123.25 252.339 123.25 253.375C123.25 254.411 122.411 255.25 121.375 255.25C121.106 255.25 120.85 255.193 120.619 255.091L120.435 254.998C119.876 254.673 119.5 254.068 119.5 253.375ZM120.435 263.003C119.876 263.327 119.5 263.932 119.5 264.625C119.5 265.661 120.339 266.5 121.375 266.5C122.411 266.5 123.25 265.661 123.25 264.625C123.25 263.589 122.411 262.75 121.375 262.75C121.106 262.75 120.85 262.807 120.619 262.909L120.435 263.003Z" fill="url(#paint11_linear_3654_31328)"/>
</g>
<path d="M465 213H252.681C250.596 213 248.548 213.543 246.737 214.576L221.88 228.75" stroke="url(#paint12_linear_3654_31328)" stroke-opacity="0.1"/>
<path d="M465 227H257.715C255.609 227 253.54 227.554 251.715 228.608L201.859 257.392C200.035 258.446 197.965 259 195.859 259H147" stroke="#FAFAFF" stroke-opacity="0.1"/>
<path d="M465 184.518H257.715C255.609 184.518 253.54 183.964 251.715 182.91L167 134" stroke="url(#paint13_linear_3654_31328)" stroke-opacity="0.1"/>
<rect x="463" y="124.757" width="164.895" height="164.895" rx="26" fill="url(#paint14_linear_3654_31328)" fill-opacity="0.2" stroke="url(#paint15_linear_3654_31328)" stroke-linecap="round" stroke-dasharray="0.1 1.5"/>
<rect opacity="0.75" x="461" y="123.171" width="168.066" height="168.066" rx="28" stroke="url(#paint16_linear_3654_31328)" stroke-linecap="round" stroke-dasharray="0.1 1.5"/>
<rect opacity="0.4" x="460" y="121.585" width="171.237" height="171.237" rx="30" stroke="url(#paint17_linear_3654_31328)" stroke-linecap="round" stroke-dasharray="0.1 1.5"/>
<rect opacity="0.2" x="458" y="120" width="174.409" height="172.823" rx="32" stroke="url(#paint18_linear_3654_31328)" stroke-linecap="round" stroke-dasharray="0.1 1.5"/>
<g filter="url(#filter0_i_3654_31328)">
<rect x="465" y="127" width="160" height="160" rx="24" fill="#0B0A14"/>
<rect x="465" y="127" width="160" height="160" rx="24" fill="url(#paint19_linear_3654_31328)" fill-opacity="0.15"/>
</g>
<g opacity="0.2">
<path d="M480.198 213.594V227.513" stroke="#E5EDFD" stroke-width="0.29304"/>
<path d="M506.425 141.799H567.587C569.141 141.799 570.632 142.416 571.731 143.515L573.866 145.65C574.965 146.749 576.456 147.367 578.01 147.367H579.162C580.717 147.367 582.207 147.984 583.306 149.083L585.441 151.218C586.54 152.317 588.031 152.934 589.585 152.934H597.707" stroke="#E5EDFD" stroke-width="0.29304"/>
<path d="M511.993 147.366H532.066" stroke="#E5EDFD" stroke-width="0.29304"/>
<path d="M517.267 152.934H533.594C535.149 152.934 536.639 152.317 537.739 151.217L539.873 149.083C540.972 147.984 542.463 147.366 544.017 147.366H563.924C565.478 147.366 566.969 147.984 568.068 149.083L570.203 151.217C571.302 152.317 572.793 152.934 574.347 152.934H577.78" stroke="#E5EDFD" stroke-width="0.29304"/>
<rect x="504.667" y="140.48" width="2.63736" height="2.63736" rx="0.586081" fill="#E5EFFD"/>
<rect x="510.234" y="146.048" width="2.63736" height="2.63736" rx="0.586081" fill="#E5EFFD"/>
<rect x="478.879" y="211.396" width="2.63736" height="2.63736" rx="0.586081" fill="#E5EFFD"/>
<rect x="478.879" y="226.927" width="2.63736" height="2.63736" rx="0.586081" fill="#E5EFFD"/>
<path d="M491.627 244.363V252.421" stroke="#E5EDFD" stroke-width="0.29304"/>
<rect x="490.308" y="242.165" width="2.63736" height="2.63736" rx="0.586081" fill="#E5EFFD"/>
<rect x="490.308" y="250.37" width="2.63736" height="2.63736" rx="0.586081" fill="#E5EFFD"/>
<path d="M491.626 182.238V195.865" stroke="#E5EDFD" stroke-width="0.29304"/>
<rect x="489.722" y="179.161" width="4.10256" height="4.10256" rx="0.586081" fill="#E5EFFD"/>
<rect x="490.308" y="195.278" width="2.63736" height="2.63736" rx="0.586081" fill="#E5EFFD"/>
<path d="M491.626 154.253V171.542C491.626 173.08 490.38 174.326 488.842 174.326C487.305 174.326 486.059 173.08 486.059 171.542V149.271" stroke="#E5EDFD" stroke-width="0.29304"/>
<rect x="530.747" y="146.048" width="2.63736" height="2.63736" rx="0.586081" fill="#E5EFFD"/>
<rect x="490.308" y="151.909" width="2.63736" height="2.63736" rx="0.586081" fill="#E5EFFD"/>
<rect x="577.634" y="151.616" width="2.63736" height="2.63736" rx="0.586081" fill="#E5EFFD"/>
<rect x="513.165" y="150.736" width="4.10256" height="4.10256" rx="0.586081" fill="#E5EFFD"/>
<rect x="597.267" y="150.736" width="4.10256" height="4.10256" rx="0.586081" fill="#E5EFFD"/>
<rect x="484.154" y="145.168" width="4.10256" height="4.10256" rx="0.586081" fill="#E5EFFD"/>
<rect x="543.348" y="150.736" width="4.10256" height="4.10256" rx="0.586081" fill="#E5EFFD"/>
<rect x="551.553" y="150.736" width="4.10256" height="4.10256" rx="0.586081" fill="#E5EFFD"/>
<rect x="559.758" y="150.736" width="4.10256" height="4.10256" rx="0.586081" fill="#E5EFFD"/>
<path d="M508.476 152.934L499.208 143.543C498.107 142.427 496.605 141.799 495.037 141.799H486.059C482.822 141.799 480.198 144.423 480.198 147.66V176.587C480.198 178.142 480.815 179.632 481.914 180.732L484.195 183.013C485.295 184.112 485.912 185.602 485.912 187.157V198.003C485.912 199.456 486.452 200.857 487.427 201.935L489.965 204.74C490.94 205.818 491.48 207.219 491.48 208.672V232.435C491.48 233.888 490.94 235.289 489.965 236.367L487.427 239.172C486.452 240.25 485.912 241.651 485.912 243.104V266.341H500.124" stroke="#E5EDFD" stroke-width="0.29304"/>
<rect x="484.593" y="265.022" width="2.63736" height="2.63736" rx="0.586081" fill="#E5EFFD"/>
<rect x="499.392" y="265.022" width="2.63736" height="2.63736" rx="0.586081" fill="#E5EFFD"/>
<path d="M480.198 188.246V201.226C480.198 202.679 480.738 204.08 481.713 205.158L484.251 207.963C485.226 209.041 485.766 210.442 485.766 211.895V228.918C485.766 230.371 485.226 231.773 484.251 232.85L481.713 235.656C480.738 236.733 480.198 238.135 480.198 239.588V266.341C480.198 269.578 482.822 272.202 486.059 272.202H511.993" stroke="#E5EDFD" stroke-width="0.29304"/>
<rect x="511.114" y="270.883" width="2.63736" height="2.63736" rx="0.586081" fill="#E5EFFD"/>
<rect x="478" y="186.194" width="4.10256" height="4.10256" rx="0.586081" fill="#E5EFFD"/>
<rect x="507.304" y="151.909" width="2.63736" height="2.63736" rx="0.586081" fill="#E5EFFD"/>
<path d="M501.15 153.374L494.996 147.366H492.066" stroke="#E5EDFD" stroke-width="0.29304"/>
<rect x="499.392" y="151.909" width="2.63736" height="2.63736" rx="0.586081" fill="#E5EFFD"/>
<rect x="490.601" y="146.048" width="2.63736" height="2.63736" rx="0.586081" fill="#E5EFFD"/>
<path d="M611.04 200.407V186.487" stroke="#E5EDFD" stroke-width="0.29304"/>
<path d="M584.813 272.202H523.651C522.096 272.202 520.606 271.584 519.507 270.485L517.372 268.35C516.273 267.251 514.782 266.634 513.228 266.634H512.076C510.521 266.634 509.031 266.016 507.931 264.917L505.797 262.783C504.698 261.684 503.207 261.066 501.653 261.066H493.531" stroke="#E5EDFD" stroke-width="0.29304"/>
<path d="M579.245 266.634H559.172" stroke="#E5EDFD" stroke-width="0.29304"/>
<path d="M573.97 261.067H557.643C556.089 261.067 554.598 261.684 553.499 262.783L551.365 264.918C550.265 266.017 548.775 266.634 547.22 266.634H527.314C525.759 266.634 524.269 266.017 523.169 264.918L521.035 262.783C519.936 261.684 518.445 261.067 516.891 261.067H513.458" stroke="#E5EDFD" stroke-width="0.29304"/>
<rect x="586.571" y="273.521" width="2.63736" height="2.63736" rx="0.586081" transform="rotate(180 586.571 273.521)" fill="#E5EFFD"/>
<rect x="581.003" y="267.953" width="2.63736" height="2.63736" rx="0.586081" transform="rotate(180 581.003 267.953)" fill="#E5EFFD"/>
<rect x="612.359" y="202.605" width="2.63736" height="2.63736" rx="0.586081" transform="rotate(180 612.359 202.605)" fill="#E5EFFD"/>
<rect x="612.359" y="187.074" width="2.63736" height="2.63736" rx="0.586081" transform="rotate(180 612.359 187.074)" fill="#E5EFFD"/>
<path d="M599.611 169.638V161.579" stroke="#E5EDFD" stroke-width="0.29304"/>
<rect x="600.93" y="171.835" width="2.63736" height="2.63736" rx="0.586081" transform="rotate(180 600.93 171.835)" fill="#E5EFFD"/>
<rect x="600.93" y="163.63" width="2.63736" height="2.63736" rx="0.586081" transform="rotate(180 600.93 163.63)" fill="#E5EFFD"/>
<path d="M599.611 231.762V218.136" stroke="#E5EDFD" stroke-width="0.29304"/>
<rect x="601.516" y="234.839" width="4.10256" height="4.10256" rx="0.586081" transform="rotate(180 601.516 234.839)" fill="#E5EFFD"/>
<rect x="600.93" y="218.722" width="2.63736" height="2.63736" rx="0.586081" transform="rotate(180 600.93 218.722)" fill="#E5EFFD"/>
<path d="M599.611 259.748V242.458C599.611 240.921 600.858 239.675 602.395 239.675C603.933 239.675 605.179 240.921 605.179 242.458V264.729" stroke="#E5EDFD" stroke-width="0.29304"/>
<rect x="560.49" y="267.953" width="2.63736" height="2.63736" rx="0.586081" transform="rotate(180 560.49 267.953)" fill="#E5EFFD"/>
<rect x="600.93" y="262.092" width="2.63736" height="2.63736" rx="0.586081" transform="rotate(180 600.93 262.092)" fill="#E5EFFD"/>
<rect x="513.604" y="262.385" width="2.63736" height="2.63736" rx="0.586081" transform="rotate(180 513.604 262.385)" fill="#E5EFFD"/>
<rect x="578.073" y="263.264" width="4.10256" height="4.10256" rx="0.586081" transform="rotate(180 578.073 263.264)" fill="#E5EFFD"/>
<rect x="493.824" y="263.264" width="4.10256" height="4.10256" rx="0.586081" transform="rotate(180 493.824 263.264)" fill="#E5EFFD"/>
<rect x="607.084" y="268.832" width="4.10256" height="4.10256" rx="0.586081" transform="rotate(180 607.084 268.832)" fill="#E5EFFD"/>
<rect x="547.89" y="263.264" width="4.10256" height="4.10256" rx="0.586081" transform="rotate(180 547.89 263.264)" fill="#E5EFFD"/>
<rect x="539.685" y="263.264" width="4.10256" height="4.10256" rx="0.586081" transform="rotate(180 539.685 263.264)" fill="#E5EFFD"/>
<rect x="531.479" y="263.264" width="4.10256" height="4.10256" rx="0.586081" transform="rotate(180 531.479 263.264)" fill="#E5EFFD"/>
<path d="M582.762 261.066L592.029 270.458C593.131 271.573 594.633 272.202 596.201 272.202H605.179C608.416 272.202 611.04 269.578 611.04 266.341V237.413C611.04 235.859 610.423 234.368 609.323 233.269L607.042 230.988C605.943 229.889 605.326 228.398 605.326 226.844V215.998C605.326 214.545 604.786 213.143 603.811 212.066L601.273 209.261C600.298 208.183 599.758 206.782 599.758 205.328V181.566C599.758 180.113 600.298 178.711 601.273 177.634L603.811 174.828C604.786 173.751 605.326 172.349 605.326 170.896V147.66H591.113" stroke="#E5EDFD" stroke-width="0.29304"/>
<rect x="606.644" y="148.979" width="2.63736" height="2.63736" rx="0.586081" transform="rotate(180 606.644 148.979)" fill="#E5EFFD"/>
<rect x="591.846" y="148.979" width="2.63736" height="2.63736" rx="0.586081" transform="rotate(180 591.846 148.979)" fill="#E5EFFD"/>
<path d="M611.04 225.755V212.775C611.04 211.321 610.5 209.92 609.525 208.843L606.987 206.037C606.012 204.96 605.472 203.558 605.472 202.105V185.082C605.472 183.629 606.012 182.228 606.987 181.15L609.525 178.345C610.5 177.267 611.04 175.866 611.04 174.413V147.66C611.04 144.423 608.416 141.799 605.179 141.799H579.245" stroke="#E5EDFD" stroke-width="0.29304"/>
<rect x="580.124" y="143.118" width="2.63736" height="2.63736" rx="0.586081" transform="rotate(180 580.124 143.118)" fill="#E5EFFD"/>
<rect x="613.238" y="227.806" width="4.10256" height="4.10256" rx="0.586081" transform="rotate(180 613.238 227.806)" fill="#E5EFFD"/>
<rect x="583.934" y="262.092" width="2.63736" height="2.63736" rx="0.586081" transform="rotate(180 583.934 262.092)" fill="#E5EFFD"/>
<path d="M590.088 260.627L596.241 266.634H599.172" stroke="#E5EDFD" stroke-width="0.29304"/>
<rect x="591.846" y="262.092" width="2.63736" height="2.63736" rx="0.586081" transform="rotate(180 591.846 262.092)" fill="#E5EFFD"/>
<rect x="600.637" y="267.953" width="2.63736" height="2.63736" rx="0.586081" transform="rotate(180 600.637 267.953)" fill="#E5EFFD"/>
</g>
<path d="M532.167 209.333L533.997 212.994C534.617 214.233 534.926 214.852 535.34 215.389C535.707 215.866 536.134 216.293 536.611 216.66C537.147 217.074 537.767 217.383 539.006 218.003L542.667 219.833L539.006 221.664C537.767 222.283 537.147 222.593 536.611 223.007C536.134 223.374 535.707 223.801 535.34 224.277C534.926 224.814 534.617 225.433 533.997 226.672L532.167 230.333L530.336 226.672C529.717 225.433 529.407 224.814 528.993 224.277C528.626 223.801 528.199 223.374 527.723 223.007C527.186 222.593 526.566 222.283 525.327 221.664L521.667 219.833L525.327 218.003C526.566 217.383 527.186 217.074 527.723 216.66C528.199 216.293 528.626 215.866 528.993 215.389C529.407 214.852 529.717 214.233 530.336 212.994L532.167 209.333Z" fill="url(#paint20_linear_3654_31328)"/>
<path d="M552 183.667L554.75 190.817C555.408 192.528 555.737 193.383 556.249 194.103C556.702 194.74 557.259 195.298 557.897 195.751C558.617 196.263 559.472 196.592 561.183 197.25L568.333 200L561.183 202.75C559.472 203.408 558.617 203.737 557.897 204.249C557.259 204.702 556.702 205.259 556.249 205.897C555.737 206.617 555.408 207.472 554.75 209.183L552 216.333L549.25 209.183C548.592 207.472 548.263 206.617 547.751 205.897C547.298 205.259 546.741 204.702 546.103 204.249C545.383 203.737 544.528 203.408 542.817 202.75L535.667 200L542.817 197.25C544.528 196.592 545.383 196.263 546.103 195.751C546.741 195.298 547.298 194.74 547.751 194.103C548.263 193.383 548.592 192.528 549.25 190.817L552 183.667Z" fill="url(#paint21_linear_3654_31328)"/>
<defs>
<filter id="filter0_i_3654_31328" x="465" y="127" width="160" height="160" filterUnits="userSpaceOnUse" color-interpolation-filters="sRGB">
<feFlood flood-opacity="0" result="BackgroundImageFix"/>
<feBlend mode="normal" in="SourceGraphic" in2="BackgroundImageFix" result="shape"/>
<feColorMatrix in="SourceAlpha" type="matrix" values="0 0 0 0 0 0 0 0 0 0 0 0 0 0 0 0 0 0 127 0" result="hardAlpha"/>
<feOffset/>
<feGaussianBlur stdDeviation="2"/>
<feComposite in2="hardAlpha" operator="arithmetic" k2="-1" k3="1"/>
<feColorMatrix type="matrix" values="0 0 0 0 0.980392 0 0 0 0 0.980392 0 0 0 0 1 0 0 0 0.15 0"/>
<feBlend mode="normal" in2="shape" result="effect1_innerShadow_3654_31328"/>
</filter>
<linearGradient id="paint0_linear_3654_31328" x1="881" y1="235.518" x2="925.5" y2="261.018" gradientUnits="userSpaceOnUse">
<stop stop-color="#FAFAFF"/>
<stop offset="1" stop-color="#FAFAFF" stop-opacity="0"/>
</linearGradient>
<linearGradient id="paint1_linear_3654_31328" x1="878.852" y1="250.161" x2="923.763" y2="274.972" gradientUnits="userSpaceOnUse">
<stop stop-color="#FAFAFF"/>
<stop offset="1" stop-color="#FAFAFF" stop-opacity="0"/>
</linearGradient>
<linearGradient id="paint2_linear_3654_31328" x1="1070" y1="129" x2="1070" y2="169" gradientUnits="userSpaceOnUse">
<stop stop-color="#0A0914"/>
<stop offset="1" stop-color="#FAFAFF"/>
</linearGradient>
<linearGradient id="paint3_linear_3654_31328" x1="1070.25" y1="141.481" x2="1070.25" y2="157.021" gradientUnits="userSpaceOnUse">
<stop stop-color="#FAFAFF"/>
<stop offset="0.285" stop-color="#B1B1B4"/>
<stop offset="1" stop-color="#646465"/>
</linearGradient>
<linearGradient id="paint4_linear_3654_31328" x1="1020" y1="201" x2="1020" y2="241" gradientUnits="userSpaceOnUse">
<stop stop-color="#0A0914"/>
<stop offset="1" stop-color="#FAFAFF"/>
</linearGradient>
<linearGradient id="paint5_linear_3654_31328" x1="1020" y1="211.625" x2="1020" y2="230.375" gradientUnits="userSpaceOnUse">
<stop stop-color="#FAFAFF"/>
<stop offset="0.285" stop-color="#B1B1B4"/>
<stop offset="1" stop-color="#646465"/>
</linearGradient>
<linearGradient id="paint6_linear_3654_31328" x1="1020" y1="211.625" x2="1020" y2="230.375" gradientUnits="userSpaceOnUse">
<stop stop-color="#FAFAFF"/>
<stop offset="0.285" stop-color="#B1B1B4"/>
<stop offset="1" stop-color="#646465"/>
</linearGradient>
<linearGradient id="paint7_linear_3654_31328" x1="1020" y1="211.625" x2="1020" y2="230.375" gradientUnits="userSpaceOnUse">
<stop stop-color="#FAFAFF"/>
<stop offset="0.285" stop-color="#B1B1B4"/>
<stop offset="1" stop-color="#646465"/>
</linearGradient>
<linearGradient id="paint8_linear_3654_31328" x1="20" y1="143" x2="20" y2="183" gradientUnits="userSpaceOnUse">
<stop stop-color="#0A0914"/>
<stop offset="1" stop-color="#FAFAFF"/>
</linearGradient>
<linearGradient id="paint9_linear_3654_31328" x1="20" y1="153.625" x2="20" y2="172.375" gradientUnits="userSpaceOnUse">
<stop stop-color="#FAFAFF"/>
<stop offset="0.285" stop-color="#B1B1B4"/>
<stop offset="1" stop-color="#646465"/>
</linearGradient>
<linearGradient id="paint10_linear_3654_31328" x1="127" y1="239" x2="127" y2="279" gradientUnits="userSpaceOnUse">
<stop stop-color="#0A0914"/>
<stop offset="1" stop-color="#FAFAFF"/>
</linearGradient>
<linearGradient id="paint11_linear_3654_31328" x1="127" y1="249.625" x2="127" y2="268.375" gradientUnits="userSpaceOnUse">
<stop stop-color="#FAFAFF"/>
<stop offset="0.285" stop-color="#B1B1B4"/>
<stop offset="1" stop-color="#646465"/>
</linearGradient>
<linearGradient id="paint12_linear_3654_31328" x1="253" y1="209" x2="219.841" y2="227.971" gradientUnits="userSpaceOnUse">
<stop stop-color="#FAFAFF"/>
<stop offset="1" stop-color="#FAFAFF" stop-opacity="0"/>
</linearGradient>
<linearGradient id="paint13_linear_3654_31328" x1="209" y1="162" x2="164.5" y2="136.5" gradientUnits="userSpaceOnUse">
<stop stop-color="#FAFAFF"/>
<stop offset="1" stop-color="#FAFAFF" stop-opacity="0"/>
</linearGradient>
<linearGradient id="paint14_linear_3654_31328" x1="545.447" y1="124.757" x2="545.447" y2="289.652" gradientUnits="userSpaceOnUse">
<stop stop-color="#6953D6"/>
<stop offset="0.75" stop-color="#0B0A14"/>
</linearGradient>
<linearGradient id="paint15_linear_3654_31328" x1="545.447" y1="124.757" x2="545.447" y2="289.652" gradientUnits="userSpaceOnUse">
<stop stop-color="#6953D6"/>
<stop offset="1" stop-color="#191823"/>
</linearGradient>
<linearGradient id="paint16_linear_3654_31328" x1="545.033" y1="123.171" x2="545.033" y2="291.237" gradientUnits="userSpaceOnUse">
<stop stop-color="#6953D6"/>
<stop offset="1" stop-color="#191823"/>
</linearGradient>
<linearGradient id="paint17_linear_3654_31328" x1="545.619" y1="121.585" x2="545.619" y2="292.823" gradientUnits="userSpaceOnUse">
<stop stop-color="#6953D6"/>
<stop offset="1" stop-color="#191823"/>
</linearGradient>
<linearGradient id="paint18_linear_3654_31328" x1="545.204" y1="120" x2="545.204" y2="292.823" gradientUnits="userSpaceOnUse">
<stop stop-color="#6953D6"/>
<stop offset="1" stop-color="#191823"/>
</linearGradient>
<linearGradient id="paint19_linear_3654_31328" x1="544.503" y1="286.978" x2="544.503" y2="127.21" gradientUnits="userSpaceOnUse">
<stop stop-color="#FAFAFF"/>
<stop offset="1" stop-color="#0A0914"/>
</linearGradient>
<linearGradient id="paint20_linear_3654_31328" x1="545" y1="183.667" x2="545" y2="260.375" gradientUnits="userSpaceOnUse">
<stop stop-color="#AD94F2"/>
<stop offset="1" stop-color="#3302B8"/>
</linearGradient>
<linearGradient id="paint21_linear_3654_31328" x1="545" y1="183.667" x2="545" y2="260.375" gradientUnits="userSpaceOnUse">
<stop stop-color="#AD94F2"/>
<stop offset="1" stop-color="#3302B8"/>
</linearGradient>
</defs>
</svg>
