<svg width="64" height="64" viewBox="0 0 64 64" fill="none" xmlns="http://www.w3.org/2000/svg">
<rect width="64" height="64" rx="8" fill="url(#paint0_linear_3654_29307)" fill-opacity="0.15"/>
<rect x="0.5" y="0.5" width="63" height="63" rx="7.5" stroke="#FAFAFF" stroke-opacity="0.1"/>
<g opacity="0.6">
<path fill-rule="evenodd" clip-rule="evenodd" d="M26.8265 16.0693C27.057 16.0419 27.5934 16.0419 27.8236 16.0693C29.5084 16.2717 30.8185 17.8103 30.9398 19.46C31.1109 21.7844 30.8462 23.8321 30.8246 26.1592C30.8239 26.2234 30.8181 26.2877 30.8011 26.3496C30.6441 26.923 30.055 27.9316 29.7738 28.3945C29.676 28.5554 29.5332 28.6972 29.3461 28.7178C28.6534 28.7932 27.8552 28.0652 27.4603 27.4209C27.0367 26.7291 27.3398 25.3414 26.1088 25.4697C24.984 25.587 25.2699 27.0533 25.5502 27.7744C25.904 28.6845 26.6129 29.3789 27.4603 29.7734C27.4693 29.7776 27.4808 29.7823 27.4925 29.7871C27.9937 29.9924 28.1283 30.6489 27.6898 30.9668L24.8275 32.6533C24.4958 32.8488 24.5001 33.3302 24.8353 33.5195L25.4935 33.8906C26.1216 34.2457 26.1784 35.1541 25.8002 35.7686C25.4717 36.302 25.273 36.9085 25.267 37.5215C25.2597 38.2797 25.9508 38.8288 26.6595 38.4736C27.2492 38.1773 27.1081 37.6499 27.2435 37.126C27.3583 36.6814 27.7184 36.2087 28.0668 35.9434C28.1827 35.8551 28.3302 35.8142 28.4691 35.8584C28.625 35.9082 28.8455 36.0256 29.0599 36.2979C29.6759 37.0808 30.628 39.7758 30.8578 40.4414C30.8918 40.5401 30.9098 40.6446 30.9115 40.749C30.9377 42.3753 31.0504 42.7791 30.9398 44.4316C30.6494 48.7719 24.899 49.1247 23.9164 45.3447C23.7092 44.5476 23.6707 43.549 24.5834 43.1846C24.9165 43.0518 25.1892 43.1389 25.5111 42.9912C26.3105 42.6244 26.1457 41.3857 25.2845 41.2383C24.176 41.0487 22.9263 41.8337 22.3314 42.8291C22.1162 43.1893 21.7725 43.5041 21.3558 43.4561C19.4579 43.236 17.9281 41.5067 18.1742 39.5176C18.2878 38.5988 19.1302 37.7076 20.0326 37.5146C20.382 37.4399 20.8031 37.507 21.1263 37.3008C21.6993 36.9354 21.6387 36.0391 21.0716 35.7139C21.0007 35.6732 20.9196 35.654 20.8382 35.6455C20.2136 35.5809 19.574 35.6485 18.9525 35.5508C14.7863 34.897 14.9967 28.8024 19.1966 28.46C19.9881 28.3952 21.3396 28.7695 21.517 27.665C21.7188 26.4042 20.2409 26.6813 19.515 26.334C17.1976 25.2242 18.1472 21.9372 20.097 20.9541C20.4176 20.7925 21.8379 20.3815 22.0638 20.6123C22.1282 20.6795 22.2449 21.0683 22.3314 21.2158C22.925 22.2294 24.1007 22.9364 25.3021 22.7949C25.8762 22.7268 26.189 21.9784 25.9408 21.4688C25.5581 20.6826 24.3871 21.1964 23.93 20.2422C23.1317 18.5741 25.1844 16.2658 26.8265 16.0693ZM39.0101 38.1201C39.2166 38.5331 39.3195 38.74 39.4574 38.9189C39.5797 39.0776 39.7225 39.2194 39.8812 39.3418C40.0602 39.4797 40.2671 39.5835 40.68 39.79L41.8998 40.4004L40.68 41.0098C40.2671 41.2163 40.0602 41.3201 39.8812 41.458C39.7225 41.5804 39.5797 41.7222 39.4574 41.8809C39.3195 42.0598 39.2166 42.2667 39.0101 42.6797L38.3998 43.8994L37.7894 42.6797C37.583 42.2668 37.4801 42.0598 37.3422 41.8809C37.2198 41.7222 37.077 41.5803 36.9183 41.458C36.7394 41.3201 36.5334 41.2162 36.1205 41.0098L34.8998 40.4004L36.1205 39.79C36.5334 39.5836 36.7394 39.4797 36.9183 39.3418C37.077 39.2195 37.2198 39.0776 37.3422 38.9189C37.4801 38.74 37.583 38.533 37.7894 38.1201L38.3998 36.9004L39.0101 38.1201ZM32.3558 29.8262C32.6478 30.41 32.7936 30.7021 32.9886 30.9551C33.1617 31.1796 33.3627 31.3816 33.5873 31.5547C33.8403 31.7497 34.1331 31.8955 34.7172 32.1875L36.4427 33.0508L34.7172 33.9131C34.1331 34.2051 33.8403 34.3508 33.5873 34.5459C33.3627 34.719 33.1617 34.9209 32.9886 35.1455C32.7936 35.3985 32.6478 35.6906 32.3558 36.2744L31.4925 38L30.6293 36.2744C30.3373 35.6906 30.1915 35.3985 29.9964 35.1455C29.8234 34.9209 29.6224 34.719 29.3978 34.5459C29.1448 34.3508 28.852 34.2051 28.2679 33.9131L26.5423 33.0508L28.2679 32.1875C28.852 31.8955 29.1447 31.7498 29.3978 31.5547C29.6224 31.3816 29.8234 31.1796 29.9964 30.9551C30.1915 30.7021 30.3373 30.41 30.6293 29.8262L31.4925 28.1006L32.3558 29.8262ZM41.7631 19.2832C42.0651 20.0686 42.2157 20.4616 42.4506 20.792C42.6587 21.0847 42.9147 21.3406 43.2074 21.5488C43.5378 21.7837 43.9308 21.9352 44.7162 22.2373L47.9994 23.5L44.7162 24.7627C43.9308 25.0648 43.5378 25.2163 43.2074 25.4512C42.9147 25.6594 42.6587 25.9153 42.4506 26.208C42.2157 26.5384 42.0651 26.9314 41.7631 27.7168L40.4994 31L39.2367 27.7168C38.9346 26.9314 38.784 26.5384 38.5492 26.208C38.341 25.9153 38.085 25.6594 37.7923 25.4512C37.462 25.2163 37.069 25.0648 36.2836 24.7627L32.9994 23.5L36.2836 22.2373C37.069 21.9352 37.462 21.7837 37.7923 21.5488C38.085 21.3407 38.341 21.0847 38.5492 20.792C38.784 20.4616 38.9346 20.0686 39.2367 19.2832L40.4994 16L41.7631 19.2832Z" fill="url(#paint1_linear_3654_29307)"/>
</g>
<defs>
<linearGradient id="paint0_linear_3654_29307" x1="32" y1="0" x2="32" y2="64" gradientUnits="userSpaceOnUse">
<stop stop-color="#0A0914"/>
<stop offset="1" stop-color="#FAFAFF"/>
</linearGradient>
<linearGradient id="paint1_linear_3654_29307" x1="45.5344" y1="7.68355" x2="45.5344" y2="38.7956" gradientUnits="userSpaceOnUse">
<stop stop-color="#FAFAFF"/>
<stop offset="0.285" stop-color="#B1B1B4"/>
<stop offset="1" stop-color="#646465"/>
</linearGradient>
</defs>
</svg>
